<svg xmlns="http://www.w3.org/2000/svg" viewBox="0 0 800 200">
  <defs>
    <linearGradient id="bg" x1="0%" y1="0%" x2="100%" y2="100%">
      <stop offset="0%" style="stop-color:#0a0a0f;stop-opacity:1" />
      <stop offset="50%" style="stop-color:#0d1117;stop-opacity:1" />
      <stop offset="100%" style="stop-color:#0a0a0f;stop-opacity:1" />
    </linearGradient>
    <linearGradient id="accent" x1="0%" y1="0%" x2="100%" y2="0%">
      <stop offset="0%" style="stop-color:#00ff88;stop-opacity:1" />
      <stop offset="50%" style="stop-color:#00ccff;stop-opacity:1" />
      <stop offset="100%" style="stop-color:#ff3366;stop-opacity:1" />
    </linearGradient>
    <linearGradient id="textglow" x1="0%" y1="0%" x2="100%" y2="0%">
      <stop offset="0%" style="stop-color:#00ff88;stop-opacity:0.8" />
      <stop offset="100%" style="stop-color:#00ccff;stop-opacity:0.8" />
    </linearGradient>
    <filter id="glow">
      <feGaussianBlur stdDeviation="2" result="blur"/>
      <feMerge>
        <feMergeNode in="blur"/>
        <feMergeNode in="SourceGraphic"/>
      </feMerge>
    </filter>
    <filter id="softglow">
      <feGaussianBlur stdDeviation="4" result="blur"/>
      <feMerge>
        <feMergeNode in="blur"/>
        <feMergeNode in="SourceGraphic"/>
      </feMerge>
    </filter>
  </defs>

  <!-- Background -->
  <rect width="800" height="200" fill="url(#bg)" rx="8"/>

  <!-- Border glow -->
  <rect x="1" y="1" width="798" height="198" fill="none" stroke="url(#accent)" stroke-width="1" rx="8" opacity="0.3"/>

  <!-- Grid pattern -->
  <g opacity="0.04" stroke="#00ff88">
    <line x1="0" y1="40" x2="800" y2="40"/>
    <line x1="0" y1="80" x2="800" y2="80"/>
    <line x1="0" y1="120" x2="800" y2="120"/>
    <line x1="0" y1="160" x2="800" y2="160"/>
    <line x1="100" y1="0" x2="100" y2="200"/>
    <line x1="200" y1="0" x2="200" y2="200"/>
    <line x1="300" y1="0" x2="300" y2="200"/>
    <line x1="400" y1="0" x2="400" y2="200"/>
    <line x1="500" y1="0" x2="500" y2="200"/>
    <line x1="600" y1="0" x2="600" y2="200"/>
    <line x1="700" y1="0" x2="700" y2="200"/>
  </g>

  <!-- Concentric maze rings (left side decoration) -->
  <g transform="translate(110, 100)" opacity="0.15">
    <rect x="-80" y="-80" width="160" height="160" fill="none" stroke="#00ff88" stroke-width="1" rx="4"/>
    <rect x="-60" y="-60" width="120" height="120" fill="none" stroke="#00ccff" stroke-width="1" rx="3"/>
    <rect x="-40" y="-40" width="80" height="80" fill="none" stroke="#ff3366" stroke-width="1" rx="2"/>
    <rect x="-20" y="-20" width="40" height="40" fill="none" stroke="#00ff88" stroke-width="1.5" rx="1"/>
    <circle cx="0" cy="0" r="4" fill="#ff3366" opacity="0.8"/>
  </g>

  <!-- Maze path lines (decorative) -->
  <g opacity="0.08" stroke="#00ccff" stroke-width="0.5" fill="none">
    <path d="M 30,100 L 50,100 L 50,60 L 90,60"/>
    <path d="M 30,100 L 50,100 L 50,140 L 90,140 L 90,100 L 130,100"/>
    <path d="M 70,40 L 70,80 L 110,80 L 110,50"/>
    <path d="M 150,60 L 150,100 L 170,100"/>
    <path d="M 70,120 L 110,120 L 110,150 L 150,150 L 150,120"/>
  </g>

  <!-- Main title -->
  <text x="400" y="72" text-anchor="middle" font-family="monospace, 'Courier New'" font-size="42" font-weight="bold" fill="url(#textglow)" filter="url(#glow)">LABYRINTH</text>

  <!-- Subtitle -->
  <text x="400" y="100" text-anchor="middle" font-family="monospace, 'Courier New'" font-size="13" fill="#8b949e" letter-spacing="4">ADVERSARIAL COGNITIVE PORTAL TRAP</text>

  <!-- Accent line -->
  <line x1="250" y1="112" x2="550" y2="112" stroke="url(#accent)" stroke-width="1" opacity="0.5"/>

  <!-- Layer indicators -->
  <g transform="translate(400, 140)" text-anchor="middle" font-family="monospace, 'Courier New'" font-size="10">
    <g transform="translate(-180, 0)">
      <rect x="-30" y="-10" width="60" height="20" fill="#00ff88" opacity="0.12" rx="3"/>
      <text fill="#00ff88" dy="4" opacity="0.9">HARDEN</text>
    </g>
    <text x="-120" dy="4" fill="#3b4048">→</text>
    <g transform="translate(-90, 0)">
      <rect x="-35" y="-10" width="70" height="20" fill="#00ccff" opacity="0.12" rx="3"/>
      <text fill="#00ccff" dy="4" opacity="0.9">CONTAIN</text>
    </g>
    <text x="-20" dy="4" fill="#3b4048">→</text>
    <g transform="translate(0, 0)">
      <rect x="-35" y="-10" width="70" height="20" fill="#ff9933" opacity="0.12" rx="3"/>
      <text fill="#ff9933" dy="4" opacity="0.9">DEGRADE</text>
    </g>
    <text x="68" dy="4" fill="#3b4048">→</text>
    <g transform="translate(90, 0)">
      <rect x="-32" y="-10" width="64" height="20" fill="#ff3366" opacity="0.12" rx="3"/>
      <text fill="#ff3366" dy="4" opacity="0.9">DISRUPT</text>
    </g>
    <text x="155" dy="4" fill="#3b4048">→</text>
    <g transform="translate(180, 0)">
      <rect x="-36" y="-10" width="72" height="20" fill="#cc33ff" opacity="0.12" rx="3"/>
      <text fill="#cc33ff" dy="4" opacity="0.9">CONTROL</text>
    </g>
  </g>

  <!-- Authors -->
  <text x="400" y="178" text-anchor="middle" font-family="monospace, 'Courier New'" font-size="9" fill="#484f58">Stephen Stewart  ·  Claude (Anthropic)</text>

  <!-- Corner decorations -->
  <g opacity="0.2">
    <path d="M 12,12 L 12,30" stroke="#00ff88" stroke-width="1"/>
    <path d="M 12,12 L 30,12" stroke="#00ff88" stroke-width="1"/>
    <path d="M 788,12 L 788,30" stroke="#00ccff" stroke-width="1"/>
    <path d="M 788,12 L 770,12" stroke="#00ccff" stroke-width="1"/>
    <path d="M 12,188 L 12,170" stroke="#00ccff" stroke-width="1"/>
    <path d="M 12,188 L 30,188" stroke="#00ccff" stroke-width="1"/>
    <path d="M 788,188 L 788,170" stroke="#ff3366" stroke-width="1"/>
    <path d="M 788,188 L 770,188" stroke="#ff3366" stroke-width="1"/>
  </g>
</svg>
