<svg xmlns="http://www.w3.org/2000/svg" width="900" height="520" viewBox="0 0 900 520">
  <defs>
    <style>
      @import url('https://fonts.googleapis.com/css2?family=JetBrains+Mono:wght@400;700&amp;display=swap');
      text { font-family: 'JetBrains Mono', 'Fira Code', monospace; font-size: 12px; }
      .bg { fill: #0a0a0f; }
      .titlebar { fill: #161622; }
      .dim { fill: #484f58; }
      .subtle { fill: #8b949e; }
      .text { fill: #c9d1d9; }
      .green { fill: #00ff88; }
      .cyan { fill: #00ccff; }
      .red { fill: #ff3366; }
      .purple { fill: #cc33ff; }
      .yellow { fill: #ffaa00; }
      .bold { font-weight: 700; }
      .border { fill: none; stroke: #1a1a2e; stroke-width: 1; }
      .card-bg { fill: #0d1117; }
    </style>
  </defs>
  <!-- Terminal window -->
  <rect class="bg" width="900" height="520" rx="10"/>
  <!-- Title bar -->
  <rect class="titlebar" width="900" height="32" rx="10"/>
  <rect class="titlebar" width="900" height="12" y="20"/>
  <circle cx="20" cy="16" r="6" fill="#ff5f57"/>
  <circle cx="40" cy="16" r="6" fill="#febc2e"/>
  <circle cx="60" cy="16" r="6" fill="#28c840"/>
  <text x="420" y="20" class="dim" text-anchor="middle" font-size="11">labyrinth tui</text>

  <!-- Header -->
  <text x="16" y="58" class="dim">┌─</text>
  <text x="36" y="58" class="green bold"> LABYRINTH </text>
  <text x="148" y="58" class="dim">────────────────────────────────────────────────────────────────────────────────────────</text>
  <text x="834" y="58" class="green">[LIVE]</text>
  <text x="874" y="58" class="dim">─┐</text>

  <!-- Tab bar -->
  <text x="16" y="76" class="dim">│</text>
  <text x="28" y="76" class="green bold" text-decoration="underline"> Overview </text>
  <text x="108" y="76" class="dim"> │ </text>
  <text x="128" y="76" class="dim"> Sessions </text>
  <text x="215" y="76" class="dim"> │ </text>
  <text x="235" y="76" class="dim"> Layers </text>
  <text x="310" y="76" class="dim"> │ </text>
  <text x="330" y="76" class="dim"> Analysis </text>
  <text x="418" y="76" class="dim"> │ </text>
  <text x="438" y="76" class="dim"> Logs </text>
  <text x="486" y="76" class="dim"> │</text>

  <!-- Separator -->
  <text x="16" y="92" class="dim" font-size="11">──────────────────────────────────────────────────────────────────────────────────────────────────────────────────</text>

  <!-- Left card: Environment -->
  <rect x="20" y="102" width="420" height="120" rx="8" class="card-bg"/>
  <rect x="20" y="102" width="420" height="120" rx="8" class="border"/>

  <text x="40" y="126" class="subtle bold">ENV: </text>
  <text x="80" y="126" class="text bold">labyrinth-test-01</text>
  <text x="40" y="144" class="subtle bold">Type: </text>
  <text x="82" y="144" class="subtle">test</text>
  <text x="40" y="162" class="subtle bold">Mode: </text>
  <text x="84" y="162" class="subtle">test</text>
  <text x="40" y="180" class="subtle bold">Health: </text>
  <text x="96" y="180" class="green">● RUNNING</text>

  <!-- Right card: Stats -->
  <rect x="458" y="102" width="420" height="120" rx="8" class="card-bg"/>
  <rect x="458" y="102" width="420" height="120" rx="8" class="border"/>

  <text x="478" y="126" class="subtle bold">ACTIVE SESSIONS: </text>
  <text x="630" y="126" class="green bold">4</text>
  <text x="478" y="144" class="subtle bold">CAPTURED PROMPTS: </text>
  <text x="638" y="144" class="red bold">2</text>
  <text x="478" y="162" class="subtle bold">TOTAL EVENTS: </text>
  <text x="622" y="162" class="purple bold">147</text>
  <text x="478" y="180" class="subtle bold">AUTH ATTEMPTS: </text>
  <text x="626" y="180" class="yellow bold">12</text>
  <text x="478" y="198" class="subtle bold">CONTAINERS: </text>
  <text x="612" y="198" class="cyan bold">6</text>
  <text x="628" y="198" class="dim"> (1 session)</text>

  <!-- Service table -->
  <text x="30" y="248" class="text bold">SERVICE                  STATUS         LAYER      PORTS</text>
  <text x="30" y="264" class="dim">────────────────────────  ──────────────  ──────────  ─────────────</text>

  <text x="30" y="282" class="cyan bold">labyrinth-ssh             </text>
  <text x="288" y="282" class="green">● running     </text>
  <text x="426" y="282" class="subtle">L1         </text>
  <text x="526" y="282" class="dim">2222:22</text>

  <text x="30" y="300" class="cyan bold">labyrinth-http            </text>
  <text x="288" y="300" class="green">● running     </text>
  <text x="426" y="300" class="subtle">L1         </text>
  <text x="526" y="300" class="dim">8080:80</text>

  <text x="30" y="318" class="cyan bold">labyrinth-orchestrator    </text>
  <text x="288" y="318" class="green">● running     </text>
  <text x="426" y="318" class="subtle">orch       </text>
  <text x="526" y="318" class="dim">-</text>

  <text x="30" y="336" class="cyan bold">labyrinth-proxy           </text>
  <text x="288" y="336" class="green">● running     </text>
  <text x="426" y="336" class="subtle">L4         </text>
  <text x="526" y="336" class="dim">-</text>

  <text x="30" y="354" class="cyan bold">labyrinth-dashboard       </text>
  <text x="288" y="354" class="green">● running     </text>
  <text x="426" y="354" class="subtle">dash       </text>
  <text x="526" y="354" class="dim">9000:9000</text>

  <text x="30" y="380" class="subtle">Session Containers (1):</text>
  <text x="30" y="398" class="dim">  labyrinth-sess-a1b2c3    </text>
  <text x="288" y="398" class="green">● running</text>

  <!-- Help bar -->
  <text x="16" y="500" class="dim">  [Tab] switch  [1-5] direct  [r] refresh  [q] quit</text>
</svg>
